<svg width="296" height="149" viewBox="0 0 296 149" fill="none" xmlns="http://www.w3.org/2000/svg">
<path d="M42.9211 26.9834C40.7444 23.5847 37.5668 20.9451 33.8265 19.4287C30.0862 17.9123 25.9675 17.5938 22.0386 18.5172C18.1097 19.4406 14.564 21.5604 11.8908 24.5841C9.21752 27.6078 7.54836 31.3865 7.11351 35.399C6.67867 39.4115 7.49957 43.4601 9.46299 46.9863C11.4264 50.5125 14.4356 53.3426 18.0755 55.0863C21.7154 56.8299 25.8067 57.4012 29.785 56.7213C33.7633 56.0414 37.4326 54.1438 40.2868 51.2903L26.5 37.5L42.9211 26.9834Z" fill="#0FB414"/>
<path d="M45.1136 31.75H35.1591C34.9773 30.4621 34.6061 29.3182 34.0455 28.3182C33.4849 27.303 32.7652 26.4394 31.8864 25.7273C31.0076 25.0151 29.9924 24.4697 28.8409 24.0909C27.7045 23.7121 26.4697 23.5227 25.1364 23.5227C22.7273 23.5227 20.6288 24.1212 18.8409 25.3182C17.053 26.5 15.6667 28.2273 14.6818 30.5C13.697 32.7576 13.2045 35.5 13.2045 38.7273C13.2045 42.0455 13.697 44.8333 14.6818 47.0909C15.6818 49.3485 17.0758 51.053 18.8636 52.2045C20.6515 53.3561 22.7197 53.9318 25.0682 53.9318C26.3864 53.9318 27.6061 53.7576 28.7273 53.4091C29.8636 53.0606 30.8712 52.553 31.75 51.8864C32.6288 51.2045 33.3561 50.3788 33.9318 49.4091C34.5227 48.4394 34.9318 47.3333 35.1591 46.0909L45.1136 46.1364C44.8561 48.2727 44.2121 50.3333 43.1818 52.3182C42.1667 54.2879 40.7955 56.053 39.0682 57.6136C37.3561 59.1591 35.3106 60.3864 32.9318 61.2955C30.5682 62.1894 27.8939 62.6364 24.9091 62.6364C20.7576 62.6364 17.0455 61.697 13.7727 59.8182C10.5152 57.9394 7.93939 55.2197 6.04545 51.6591C4.16667 48.0985 3.22727 43.7879 3.22727 38.7273C3.22727 33.6515 4.18182 29.3333 6.09091 25.7727C8 22.2121 10.5909 19.5 13.8636 17.6364C17.1364 15.7576 20.8182 14.8182 24.9091 14.8182C27.6061 14.8182 30.1061 15.197 32.4091 15.9545C34.7273 16.7121 36.7803 17.8182 38.5682 19.2727C40.3561 20.7121 41.8106 22.4773 42.9318 24.5682C44.0682 26.6591 44.7955 29.053 45.1136 31.75ZM52.1705 62V15.4545H62.0114V34.6591H81.9886V15.4545H91.8068V62H81.9886V42.7727H62.0114V62H52.1705ZM99.9205 62V15.4545H131.284V23.5682H109.761V34.6591H129.67V42.7727H109.761V53.8864H131.375V62H99.9205ZM178.04 15.4545V62H169.54L149.29 32.7045H148.949V62H139.108V15.4545H147.744L167.835 44.7273H168.244V15.4545H178.04ZM225.102 15.4545V62H216.602L196.352 32.7045H196.011V62H186.17V15.4545H194.807L214.898 44.7273H215.307V15.4545H225.102ZM241.256 62H230.71L246.778 15.4545H259.46L275.506 62H264.96L253.301 26.0909H252.938L241.256 62ZM240.597 43.7045H265.506V51.3864H240.597V43.7045ZM290.949 15.4545V62H281.108V15.4545H290.949Z" fill="white"/>
<path d="M141 71.5714H146.143V76.7143H141V71.5714ZM146.143 71.5714H151.286V76.7143H146.143V71.5714ZM151.286 71.5714H156.429V76.7143H151.286V71.5714ZM156.429 71.5714H161.571V76.7143H156.429V71.5714ZM161.571 71.5714H166.714V76.7143H161.571V71.5714ZM166.714 71.5714H171.857V76.7143H166.714V71.5714ZM166.714 76.7143H171.857V81.8571H166.714V76.7143ZM161.571 76.7143H166.714V81.8571H161.571V76.7143ZM156.429 76.7143H161.571V81.8571H156.429V76.7143ZM151.286 76.7143H156.429V81.8571H151.286V76.7143ZM146.143 76.7143H151.286V81.8571H146.143V76.7143ZM141 76.7143H146.143V81.8571H141V76.7143ZM151.286 81.8571H156.429V87H151.286V81.8571ZM151.286 87H156.429V92.1429H151.286V87ZM151.286 92.1429H156.429V97.2857H151.286V92.1429ZM151.286 97.2857H156.429V102.429H151.286V97.2857ZM151.286 102.429H156.429V107.571H151.286V102.429ZM151.286 107.571H156.429V112.714H151.286V107.571ZM156.429 102.429H161.571V107.571H156.429V102.429ZM156.429 97.2857H161.571V102.429H156.429V97.2857ZM156.429 92.1429H161.571V97.2857H156.429V92.1429ZM156.429 87H161.571V92.1429H156.429V87ZM156.429 81.8571H161.571V87H156.429V81.8571ZM156.429 107.571H161.571V112.714H156.429V107.571ZM156.429 112.714H161.571V117.857H156.429V112.714ZM156.429 117.857H161.571V123H156.429V117.857ZM151.286 117.857H156.429V123H151.286V117.857ZM151.286 112.714H156.429V117.857H151.286V112.714ZM182.143 76.7143H187.286V81.8571H182.143V76.7143ZM202.714 76.7143H207.857V81.8571H202.714V76.7143ZM202.714 81.8571H207.857V87H202.714V81.8571ZM207.857 76.7143H213V81.8571H207.857V76.7143ZM207.857 81.8571H213V87H207.857V81.8571ZM207.857 87H213V92.1429H207.857V87ZM207.857 92.1429H213V97.2857H207.857V92.1429ZM207.857 97.2857H213V102.429H207.857V97.2857ZM207.857 102.429H213V107.571H207.857V102.429ZM207.857 107.571H213V112.714H207.857V107.571ZM207.857 112.714H213V117.857H207.857V112.714ZM202.714 112.714H207.857V117.857H202.714V112.714ZM202.714 107.571H207.857V112.714H202.714V107.571ZM202.714 102.429H207.857V107.571H202.714V102.429ZM202.714 97.2857H207.857V102.429H202.714V97.2857ZM202.714 92.1429H207.857V97.2857H202.714V92.1429ZM202.714 87H207.857V92.1429H202.714V87ZM197.571 107.571H202.714V112.714H197.571V107.571ZM197.571 112.714H202.714V117.857H197.571V112.714ZM202.714 117.857H207.857V123H202.714V117.857ZM197.571 117.857H202.714V123H197.571V117.857ZM192.429 117.857H197.571V123H192.429V117.857ZM192.429 112.714H197.571V117.857H192.429V112.714ZM187.286 117.857H192.429V123H187.286V117.857ZM182.143 117.857H187.286V123H182.143V117.857ZM182.143 112.714H187.286V117.857H182.143V112.714ZM187.286 112.714H192.429V117.857H187.286V112.714ZM187.286 107.571H192.429V112.714H187.286V107.571ZM182.143 107.571H187.286V112.714H182.143V107.571ZM177 112.714H182.143V117.857H177V112.714ZM177 107.571H182.143V112.714H177V107.571ZM177 102.429H182.143V107.571H177V102.429ZM177 97.2857H182.143V102.429H177V97.2857ZM177 92.1429H182.143V97.2857H177V92.1429ZM177 87H182.143V92.1429H177V87ZM177 81.8571H182.143V87H177V81.8571ZM182.143 81.8571H187.286V87H182.143V81.8571ZM177 76.7143H182.143V81.8571H177V76.7143ZM182.143 87H187.286V92.1429H182.143V87ZM182.143 92.1429H187.286V97.2857H182.143V92.1429ZM182.143 97.2857H187.286V102.429H182.143V97.2857ZM182.143 102.429H187.286V107.571H182.143V102.429ZM177 71.5714H182.143V76.7143H177V71.5714ZM182.143 71.5714H187.286V76.7143H182.143V71.5714ZM202.714 71.5714H207.857V76.7143H202.714V71.5714ZM207.857 71.5714H213V76.7143H207.857V71.5714ZM223.299 97.2857H228.442V102.429H223.299V97.2857ZM228.442 97.2857H233.585V102.429H228.442V97.2857ZM233.585 97.2857H238.728V102.429H233.585V97.2857ZM238.728 97.2857H243.871V102.429H238.728V97.2857ZM228.442 102.429H233.585V107.571H228.442V102.429ZM223.299 102.429H228.442V107.571H223.299V102.429ZM233.585 102.429H238.728V107.571H233.585V102.429ZM238.728 102.429H243.871V107.571H238.728V102.429ZM243.871 107.571H249.013V112.714H243.871V107.571ZM249.013 102.429H254.156V107.571H249.013V102.429ZM243.871 102.429H249.013V107.571H243.871V102.429ZM249.013 107.571H254.156V112.714H249.013V107.571ZM243.871 112.714H249.013V117.857H243.871V112.714ZM249.013 112.714H254.156V117.857H249.013V112.714ZM249.013 117.857H254.156V123H249.013V117.857ZM243.871 117.857H249.013V123H243.871V117.857ZM223.299 117.857H228.442V123H223.299V117.857ZM218.156 117.857H223.299V123H218.156V117.857ZM218.156 112.714H223.299V117.857H218.156V112.714ZM223.299 112.714H228.442V117.857H223.299V112.714ZM223.299 107.571H228.442V112.714H223.299V107.571ZM218.156 107.571H223.299V112.714H218.156V107.571ZM218.156 102.429H223.299V107.571H218.156V102.429ZM218.156 97.2857H223.299V102.429H218.156V97.2857ZM218.156 92.1429H223.299V97.2857H218.156V92.1429ZM223.299 92.1429H228.442V97.2857H223.299V92.1429ZM218.156 71.5714H223.299V76.7143H218.156V71.5714ZM223.299 71.5714H228.442V76.7143H223.299V71.5714ZM228.442 71.5714H233.585V76.7143H228.442V71.5714ZM233.585 71.5714H238.728V76.7143H233.585V71.5714ZM238.728 71.5714H243.871V76.7143H238.728V71.5714ZM243.871 71.5714H249.013V76.7143H243.871V71.5714ZM243.871 76.7143H249.013V81.8571H243.871V76.7143ZM238.728 76.7143H243.871V81.8571H238.728V76.7143ZM233.585 76.7143H238.728V81.8571H233.585V76.7143ZM228.442 76.7143H233.585V81.8571H228.442V76.7143ZM223.299 76.7143H228.442V81.8571H223.299V76.7143ZM218.156 76.7143H223.299V81.8571H218.156V76.7143ZM218.156 81.8571H223.299V87H218.156V81.8571ZM218.156 87H223.299V92.1429H218.156V87ZM223.299 87H228.442V92.1429H223.299V87ZM223.299 81.8571H228.442V87H223.299V81.8571ZM243.871 81.8571H249.013V87H243.871V81.8571ZM249.013 81.8571H254.156V87H249.013V81.8571ZM249.013 76.7143H254.156V81.8571H249.013V76.7143ZM249.013 87H254.156V92.1429H249.013V87ZM243.871 87H249.013V92.1429H243.871V87ZM243.871 92.1429H249.013V97.2857H243.871V92.1429ZM249.013 92.1429H254.156V97.2857H249.013V92.1429ZM243.871 97.2857H249.013V102.429H243.871V97.2857ZM259.312 71.5714H264.455V76.7143H259.312V71.5714ZM264.455 71.5714H269.598V76.7143H264.455V71.5714ZM264.455 76.7143H269.598V81.8571H264.455V76.7143ZM264.455 81.8571H269.598V87H264.455V81.8571ZM264.455 87H269.598V92.1429H264.455V87ZM259.312 87H264.455V92.1429H259.312V87ZM259.312 81.8571H264.455V87H259.312V81.8571ZM259.312 76.7143H264.455V81.8571H259.312V76.7143ZM259.312 92.1429H264.455V97.2857H259.312V92.1429ZM259.312 97.2857H264.455V102.429H259.312V97.2857ZM259.312 102.429H264.455V107.571H259.312V102.429ZM264.455 97.2857H269.598V102.429H264.455V97.2857ZM264.455 92.1429H269.598V97.2857H264.455V92.1429ZM264.455 102.429H269.598V107.571H264.455V102.429ZM264.455 107.571H269.598V112.714H264.455V107.571ZM259.312 112.714H264.455V117.857H259.312V112.714ZM259.312 107.571H264.455V112.714H259.312V107.571ZM259.312 117.857H264.455V123H259.312V117.857ZM264.455 117.857H269.598V123H264.455V117.857ZM264.455 112.714H269.598V117.857H264.455V112.714ZM269.598 71.5714H274.741V76.7143H269.598V71.5714ZM274.741 71.5714H279.884V76.7143H274.741V71.5714ZM279.884 71.5714H285.027V76.7143H279.884V71.5714ZM285.027 71.5714H290.17V76.7143H285.027V71.5714ZM279.884 76.7143H285.027V81.8571H279.884V76.7143ZM274.741 76.7143H279.884V81.8571H274.741V76.7143ZM269.598 76.7143H274.741V81.8571H269.598V76.7143ZM269.598 97.2857H274.741V102.429H269.598V97.2857ZM274.741 92.1429H279.884V97.2857H274.741V92.1429ZM269.598 92.1429H274.741V97.2857H269.598V92.1429ZM274.741 97.2857H279.884V102.429H274.741V97.2857ZM285.027 76.7143H290.17V81.8571H285.027V76.7143ZM279.884 92.1429H285.027V97.2857H279.884V92.1429ZM279.884 97.2857H285.027V102.429H279.884V97.2857Z" fill="#0FB414"/>
<circle cx="253" cy="36" r="10" fill="#0FB414"/>
</svg>
